<?xml version="1.0" encoding="UTF-8" standalone="no"?>
<!-- Created with Inkscape (http://www.inkscape.org/) -->

<svg
   width="200.17372mm"
   height="272.04388mm"
   viewBox="0 0 200.17372 272.04388"
   version="1.1"
   id="svg1"
   xml:space="preserve"
   xmlns:inkscape="http://www.inkscape.org/namespaces/inkscape"
   xmlns:sodipodi="http://sodipodi.sourceforge.net/DTD/sodipodi-0.dtd"
   xmlns="http://www.w3.org/2000/svg"
   xmlns:svg="http://www.w3.org/2000/svg"><sodipodi:namedview
     id="namedview1"
     pagecolor="#ffffff"
     bordercolor="#666666"
     borderopacity="1.0"
     inkscape:showpageshadow="2"
     inkscape:pageopacity="0.0"
     inkscape:pagecheckerboard="0"
     inkscape:deskcolor="#d1d1d1"
     inkscape:document-units="mm" /><defs
     id="defs1">
    <linearGradient id="logo-gradient" x1="0%" y1="0%" x2="100%" y2="0%">
      <stop offset="0%" style="stop-color:#6f2db1;stop-opacity:1" />
      <stop offset="50%" style="stop-color:#5b8ac2;stop-opacity:1" />
      <stop offset="100%" style="stop-color:#5bc1b3;stop-opacity:1" />
    </linearGradient>
  </defs><g
     inkscape:label="Layer 1"
     inkscape:groupmode="layer"
     id="layer1"
     transform="translate(73.379717,-385.95272)"><path
       style="fill:url(#logo-gradient)"
       d="m 51.933794,657.65317 c -1.5232,-0.44032 -2.35518,-1.64968 -5.53843,-8.05069 -2.88289,-5.79705 -6.14002,-11.04895 -9.25768,-14.92739 -1.43769,-1.78852 -2.8944,-3.03016 -5.86771,-5.00137 -4.55041,-3.01679 -5.49751,-3.85011 -8.01126,-7.0488 -1.00606,-1.28018 -2.04272,-2.3276 -2.30369,-2.3276 -0.26098,0 -1.70304,0.47306 -3.20458,1.05126 -4.05345,1.56084 -6.23149,2.12975 -10.0435601,2.62342 -5.9553,0.7712 -11.99106,-0.0506 -17.9854499,-2.44896 -9.90156,-3.96154 -15.78741,-10.20006 -18.41432,-19.51767 l -0.76074,-2.69833 -5.80577,0.1127 c -6.73114,0.13066 -10.65232,-0.40138 -15.46513,-2.09837 -5.48766,-1.93494 -8.09945,-3.49455 -11.536877,-6.88917 -4.80883,-4.74894 -9.239708,-14.14836 -10.697975,-22.6941 -0.512695,-3.0045 -0.53668,-4.07677 -0.178927,-7.99894 0.941303,-10.31982 4.000125,-17.6476 9.98994,-23.93212 1.823607,-1.91333 2.849567,-3.44785 4.555809,-6.81409 2.71683,-5.36002 5.31684,-8.90039 9.29295,-12.65398 3.72182,-3.51354 7.72399,-6.22153 12.39822,-8.38903 1.93446,-0.89703 3.7922,-1.87984 4.12832,-2.18403 0.33612,-0.30418 0.76923,-1.36874 0.96246,-2.36568 3.3563,-17.31571 6.73786,-37.70704 6.73786,-40.63031 v -0.86982 l -7.32014,-9e-5 -7.32014,-9e-5 0.0877,19.84384 c 0.0482,10.91411 -0.0312,20.00259 -0.17639,20.19662 -0.14523,0.19402 -1.52539,0.98777 -3.06702,1.76389 -1.54162,0.77611 -3.526,1.87766 -4.40972,2.44788 -2.41349,1.55732 -7.25172,5.70838 -9.19629,7.89014 -1.65739,1.85955 -1.72904,1.89896 -1.93812,1.06592 -0.11941,-0.47576 -0.16766,-12.64226 -0.10723,-27.03667 l 0.10988,-26.17165 -3.704169,-0.002 c -2.037291,-9.8e-4 -4.270166,-0.15905 -4.961943,-0.35123 -1.757735,-0.48829 -3.868209,-2.40519 -5.103461,-4.63536 -0.906066,-1.63584 -1.045111,-2.24682 -1.032356,-4.5363 0.02677,-4.80477 2.626217,-8.46164 6.756061,-9.50433 0.954841,-0.24107 8.606578,-0.37344 21.587088,-0.37344 h 20.10796 l -0.0677,-10.23011 -0.0676,-10.23011 -7.31252,-4.5e-4 -7.31252,-4.4e-4 -0.0958,6.79097 c -0.0527,3.73503 -0.21487,6.75128 -0.36039,6.70278 -0.14552,-0.0485 -4.39687,-0.0882 -9.44744,-0.0882 h -9.18285 l 0.0988,-21.07847 0.0988,-21.07847 0.93843,-1.76389 c 2.90413,-5.45864 8.46941,-7.12469 13.39676,-4.01052 3.39429,2.14526 4.50139,4.78919 4.52293,10.80149 l 0.0155,4.32153 h 66.32222 66.32223 v -4.22011 c 0,-3.34234 0.14526,-4.60808 0.69839,-6.08542 1.51687,-4.05134 4.68318,-6.34924 8.706186,-6.31836 4.03478,0.031 7.42435,2.41599 8.8949,6.25878 0.73457,1.91953 0.75052,2.39938 0.75052,22.57309 v 20.61187 l -9.43681,-0.094 -9.436796,-0.094 -0.0964,-6.51066 c -0.056,-3.78258 -0.24199,-6.60063 -0.44383,-6.72537 -0.19107,-0.11809 -0.86205,-0.18602 -1.49106,-0.15097 -0.62902,0.0351 -3.72336,0.0849 -6.87631,0.11078 l -5.73264,0.047 v 10.21985 10.21985 l 20.90208,0.0989 20.902086,0.0989 1.9279,1.09351 c 1.5806,0.89652 2.15256,1.50025 3.175,3.35139 1.15434,2.08994 1.24678,2.4809 1.24286,5.25649 -0.006,4.06054 -1.1373,6.25542 -4.36698,8.47057 -1.05902,0.72636 -1.7165,0.83924 -5.73264,0.98426 l -4.53642,0.16381 v 30.29207 c 0,16.66063 -0.12461,30.29206 -0.2769,30.29206 -0.1523,0 -0.77352,-0.59532 -1.38049,-1.32292 -0.60696,-0.7276 -1.39517,-1.6435 -1.75156,-2.03532 -0.3564,-0.39182 -1.59561,-1.82057 -2.75381,-3.175 -2.58271,-3.0203 -6.519826,-6.96215 -10.153206,-10.16543 l -2.73403,-2.41038 V 482.68447 461.9001 h -7.23195 c -3.97757,0 -7.23194,0.0545 -7.23194,0.12118 0,0.59383 2.25868,14.76975 2.67871,16.81216 0.29928,1.4552 1.08254,5.5827 1.74059,9.17222 1.29141,7.0444 3.52651,17.84873 3.88638,18.78653 0.12203,0.31802 1.51787,1.52113 3.10185,2.67359 3.99154,2.90413 8.54554,7.93613 10.113426,11.17496 0.4235,0.87483 2.48785,3.13108 5.25926,5.74817 5.30874,5.01313 6.88202,7.19382 8.47424,11.74594 2.43062,6.94909 2.89588,7.98631 4.65597,10.37983 5.53302,7.52425 6.35029,9.86146 7.2755,20.80625 0.73045,8.64082 0.77744,16.22075 0.11702,18.87361 -1.55763,6.25686 -4.58838,11.62047 -9.10207,16.10821 -2.98293,2.96578 -3.49686,3.3248 -6.24313,4.36131 -1.64595,0.62122 -3.22309,1.3894 -3.50477,1.70707 -0.28168,0.31767 -0.93146,2.16349 -1.44396,4.10183 -2.23727,8.46179 -8.000626,15.22606 -16.636666,19.52595 -3.06156,1.52435 -6.05254,2.41435 -10.84838,3.22805 -4.80854,0.81586 -7.37478,0.86189 -11.34203,0.20347 -1.55222,-0.25761 -2.89302,-0.4033 -2.97954,-0.32375 -0.0865,0.0796 0.19639,1.44968 0.62872,3.04472 0.97645,3.60256 3.23042,14.27409 3.23177,15.30099 10e-4,0.94256 -1.12403,1.36948 -5.46706,2.07415 -3.51615,0.57051 -8.55621,0.63244 -10.30596,0.12663 z m 8.36568,-7.01198 c 0,-1.09917 -2.00908,-8.86075 -3.11044,-12.0164 -1.40416,-4.02325 -2.29142,-5.236 -5.53261,-7.56224 -4.25244,-3.05201 -8.49877,-9.20058 -10.60197,-15.35134 -0.72604,-2.12331 -0.85884,-2.29066 -1.79384,-2.26066 -0.75798,0.0243 -10.6477,3.41101 -11.36071,3.89042 -0.0662,0.0445 -0.0175,0.40513 0.10824,0.80134 0.41586,1.31026 3.27035,3.86994 6.95863,6.23993 2.00028,1.28533 4.24568,2.9161 4.98978,3.62394 2.65847,2.5289 6.88635,9.05277 13.17965,20.33697 l 1.77072,3.175 2.4317,0.17813 c 1.33743,0.098 2.55075,0.12829 2.69627,0.0674 0.14552,-0.0609 0.26458,-0.56602 0.26458,-1.12246 z m 20.46112,-20.576 c 7.34815,-2.20882 11.89231,-5.32846 15.63545,-10.73397 1.15297,-1.66501 2.94735,-5.9067 3.11979,-7.37478 l 0.11837,-1.00773 -8.11389,-1.65341 c -13.71953,-2.79571 -19.28087,-2.93379 -31.92639,-0.7927 -4.49622,0.76128 -12.88254,2.68744 -13.23486,3.03977 -0.30813,0.30812 1.55615,4.95145 3.0022,7.47754 3.41109,5.95883 9.37983,10.26413 16.22988,11.70674 3.75158,0.79007 11.45858,0.45401 15.16945,-0.66146 z M 11.180874,616.5642 c 3.67916,-0.90739 8.42372,-2.59549 13.84083,-4.92451 8.71922,-3.74874 13.43321,-5.16075 25.87438,-7.75035 12.43453,-2.58821 16.42833,-3.11337 23.86728,-3.13839 6.75022,-0.0227 9.46264,0.32515 17.99167,2.30733 4.73771,1.10106 8.149756,1.4302 10.660026,1.02832 5.60881,-0.89794 10.84149,-5.20532 13.82382,-11.37935 2.15664,-4.4647 2.82628,-7.94412 2.5582,-13.29235 -0.52241,-10.42237 -0.94391,-15.55747 -1.4437,-17.58863 -0.57761,-2.34745 -2.58666,-6.79284 -3.06995,-6.79284 -0.15947,0 -0.38131,0.43656 -0.49297,0.97014 -0.9565,4.57074 -2.45415,8.0451 -4.0449,9.38363 -0.82718,0.69602 -1.32719,0.84843 -2.36226,0.72005 -2.5866,-0.32082 -3.27968,-2.18853 -1.82034,-4.90543 3.1231,-5.81438 3.54393,-14.38885 1.03246,-21.0365 -1.61327,-4.27019 -4.97553,-8.22677 -8.490386,-9.99116 -4.86023,-2.43975 -13.79818,-2.38384 -17.83666,0.11158 l -1.07971,0.66717 0.52052,3.13262 c 0.84156,5.06473 0.0267,7.18957 -2.75707,7.18957 -1.4625,0 -2.81054,-0.98708 -2.86112,-2.095 -0.0377,-0.82617 -0.29182,-3.20184 -0.50218,-4.69499 -0.3097,-2.19821 -1.72532,-4.91556 -3.6651,-7.03533 -2.15723,-2.35741 -4.27546,-3.62877 -7.32021,-4.39358 -2.48853,-0.6251 -3.248,-1.27087 -3.52866,-3.00036 -0.29243,-1.80203 0.68752,-2.81599 2.92977,-3.03144 3.60215,-0.34612 8.40825,1.93063 12.28161,5.81806 1.20828,1.21267 2.31932,2.20486 2.46897,2.20486 0.14965,0 1.69079,-0.56762 3.42477,-1.26137 3.47343,-1.38969 7.34212,-1.81991 10.66345,-1.18583 0.95382,0.1821 1.77833,0.28697 1.83225,0.23306 0.20837,-0.20837 -2.24244,-3.02582 -4.98676,-5.73278 -2.81242,-2.77413 -9.11212,-7.27183 -12.77153,-9.1183 -5.97262,-3.01367 -14.03466,-4.73519 -17.55697,-3.74901 -2.22479,0.62291 -2.99907,1.70413 -3.00271,4.19306 -0.004,2.53334 -0.58968,7.65706 -1.2233,10.69634 -0.63206,3.03179 -2.51043,6.77 -5.18492,10.3187 -2.44264,3.24108 -3.16956,4.56792 -3.95624,7.22138 -0.64665,2.1811 -1.49868,11.28012 -1.14305,12.20686 0.20133,0.52467 0.5838,0.58844 2.64482,0.44098 4.56967,-0.32696 9.18448,-3.83462 11.62964,-8.83955 1.92542,-3.94106 3.12718,-4.91264 5.13318,-4.14996 1.38503,0.52659 1.69451,1.72199 1.07285,4.14394 -0.83813,3.26531 -2.12852,5.52906 -4.75452,8.34096 -1.34842,1.44387 -2.45168,2.72139 -2.45168,2.83893 0,0.11754 0.254,0.2137 0.56445,0.2137 1.02889,0 2.96333,2.29035 2.96333,3.50854 0,1.14726 -1.30764,2.84349 -2.18882,2.83928 -0.25136,-10e-4 -2.12389,-0.499 -4.16118,-1.10622 -3.47116,-1.03458 -4.07032,-1.10574 -9.525,-1.13137 -5.72715,-0.0269 -5.89016,-0.006 -10.12834,1.27044 -6.6156,1.99319 -10.88765,4.41555 -15.51537,8.79762 -2.99542,2.8364 -3.73305,3.08273 -9.8989601,3.30572 -7.06851,0.25563 -9.22063,0.76235 -15.08094,3.55081 -5.6876099,2.70628 -12.1911999,9.0206 -14.9718199,14.53609 -0.42364,0.84032 -1.07798,2.73103 -1.45408,4.20157 -1.76425,6.89814 -0.0611,12.97621 5.09508,18.18282 2.14088,2.16182 3.21789,2.91939 6.25303,4.3984 7.4001699,3.60607 14.1209599,4.3212 22.10502,2.35207 z m 0.9484,-10.53835 c -1.4283,-1.4283 -1.17303,-2.73215 0.98077,-5.00947 1.91424,-2.02402 5.63422,-4.47123 7.71582,-5.07589 0.65847,-0.19127 3.1816,-0.51241 5.60695,-0.71363 7.07734,-0.58718 9.85817,-1.55155 15.43708,-5.35343 3.85316,-2.62582 5.86333,-3.13938 12.2877,-3.13923 2.92786,7e-5 6.65849,0.18293 8.29028,0.40636 5.39394,0.73855 8.96986,0.0641 15.71866,-2.96491 2.3719,-1.06454 3.29639,-1.29365 5.29167,-1.3114 1.32972,-0.0118 2.89391,0.0916 3.476,0.22983 1.83948,0.43684 4.44619,2.03102 4.96663,3.03744 0.96489,1.86589 0.42653,4.26024 -1.11592,4.96303 -0.77341,0.35239 -1.10874,0.31522 -2.03555,-0.22567 -2.96203,-1.72862 -3.50801,-1.97729 -4.79217,-2.18264 -1.13591,-0.18164 -1.71279,-0.031 -3.25857,0.85094 -2.14718,1.22505 -6.07445,2.75932 -8.4047,3.28347 -2.16331,0.4866 -8.1851,0.46029 -14.85706,-0.0649 -7.24687,-0.57047 -8.50401,-0.32959 -12.80252,2.45306 -7.14632,4.6262 -9.19962,5.39627 -16.08487,6.03247 -6.11949,0.56544 -8.75184,1.44089 -11.0535,3.6761 -2.30434,2.23783 -3.90645,2.56874 -5.3667,1.10849 z m -19.6513301,-1.63179 c -0.85292,-0.49678 -1.67569,-2.19599 -1.67569,-3.46067 0,-0.57999 0.75053,-2.53257 1.66785,-4.33905 1.31138,-2.58251 2.27273,-3.89072 4.49792,-6.12076 3.87928,-3.88774 7.08818,-5.50603 16.0813201,-8.11001 7.42548,-2.15007 14.16321,-5.07315 15.44254,-6.69955 0.39508,-0.50226 1.07123,-1.97618 1.50255,-3.27537 1.34497,-4.05119 3.79288,-5.70815 5.59654,-3.78824 0.70038,0.74552 0.78385,1.10383 0.59586,2.55764 -0.12025,0.92986 -0.0851,1.90112 0.0781,2.15836 0.24377,0.38424 1.86388,0.30305 9.07883,-0.45499 4.83016,-0.50747 9.33773,-1.01229 10.01683,-1.1218 4.72636,-0.76221 11.42786,-3.83746 15.27166,-7.008 4.25975,-3.51363 7.35482,-8.02755 9.08181,-13.24509 1.19609,-3.61361 1.67193,-4.21705 3.31881,-4.20881 1.37395,0.007 1.72182,0.24912 2.47901,1.7263 0.82763,1.61458 0.49934,3.96673 -1.05415,7.5529 -3.84262,8.87056 -11.70786,15.9796 -21.8652,19.76299 -3.01624,1.12348 -7.23872,1.84614 -13.75833,2.35467 -10.76843,0.83995 -14.7075,1.74392 -20.81389,4.77656 -3.5604,1.76821 -6.41757,2.82667 -12.77478,4.73249 -4.50376,1.35017 -8.9487601,2.84411 -9.8777701,3.31986 -2.79991,1.43382 -6.69653,6.06045 -8.22353,9.76418 -1.24758,3.02595 -2.91764,4.14489 -4.66629,3.12639 z M 101.24137,594.917 c -0.87279,-0.8728 -1.263956,-2.89362 -0.74706,-3.85944 0.21754,-0.40648 0.83562,-0.96663 1.37351,-1.24478 1.52068,-0.78638 3.84728,-3.51927 4.25588,-4.99907 0.20319,-0.73591 0.27681,-2.4591 0.1636,-3.82929 -0.18252,-2.20883 -0.11847,-2.60125 0.56488,-3.46141 0.57178,-0.71971 1.08284,-0.97013 1.97984,-0.97013 2.32774,0 3.287,1.98843 3.35969,6.9642 0.035,2.39778 -0.10873,3.18999 -0.88757,4.89121 -2.48137,5.42001 -7.74614,8.82533 -10.06277,6.50871 z m -4.664916,-15.24022 c -0.75433,-0.27341 -1.18404,-0.94824 -2.16533,-3.40045 -0.67333,-1.68263 -1.44047,-3.17586 -1.70475,-3.31827 -0.26428,-0.14242 -1.40435,-0.6786 -2.5335,-1.1915 -3.52518,-1.6013 -3.54934,-3.03838 -0.11517,-6.85135 2.64949,-2.94174 3.88988,-5.26358 4.67111,-8.74372 0.83155,-3.70428 0.46272,-6.49448 -1.30122,-9.84376 -0.75796,-1.43919 -1.37811,-2.82588 -1.37811,-3.08154 0,-0.85372 1.40714,-2.26694 2.49512,-2.5059 3.87683,-0.8515 7.697666,7.44995 6.692136,14.53986 -0.52612,3.70966 -1.645946,6.69067 -4.097256,10.90701 l -0.63927,1.09957 1.24802,1.45803 c 1.33883,1.56412 2.767906,5.66066 2.767906,7.93438 0,2.19273 -1.987726,3.70516 -3.939686,2.99764 z m -125.27214,10.4847 c 0.24335,-1.34353 0.40401,-2.47904 0.35701,-2.52335 -0.047,-0.0443 -1.59359,-0.26013 -3.43685,-0.4796 -6.00417,-0.71491 -12.7065,-3.30401 -16.66123,-6.43622 -2.06031,-1.63179 -5.08209,-5.41818 -6.30921,-7.90563 -1.25135,-2.53657 -2.24236,-7.68829 -1.90795,-9.91835 0.45427,-3.02924 3.06202,-4.43806 4.86942,-2.63065 0.63219,0.63218 0.80827,1.34749 1.00966,4.10157 0.33397,4.56724 1.57423,7.09191 5.10279,10.38719 4.60724,4.30266 10.53734,6.49636 17.4243,6.44572 l 3.70417,-0.0272 1.18382,-1.34088 c 3.2433,-3.67359 3.72191,-4.38633 3.34585,-4.98252 -0.20208,-0.32037 -1.8276,-1.63184 -3.61227,-2.91439 -1.78466,-1.28254 -3.4988,-2.69448 -3.80919,-3.13762 -0.8485,-1.21141 -0.66527,-2.86576 0.4209,-3.80011 1.46365,-1.25905 2.52036,-1.00764 5.64589,1.34327 2.92464,2.19982 5.78427,3.86021 6.64831,3.86021 0.27398,0 1.38527,-0.5342 2.46953,-1.1871 1.08425,-0.65291 2.4548799,-1.38738 3.0458299,-1.63216 0.59096,-0.24478 1.15541,-0.78215 1.25435,-1.19415 0.0989,-0.412 -0.53806,-3.68597 -1.41554,-7.27548 -1.8878099,-7.72244 -2.0431999,-10.16774 -0.7296299,-11.48131 0.9568199,-0.95682 2.4708699,-1.12243 3.4518799,-0.37757 0.89019,0.67591 1.53028,2.43635 2.19541,6.03804 0.80053,4.33493 1.52195,6.79215 2.48955,8.47961 1.08514,1.89244 2.15771,2.43235 4.2934,2.16121 0.9333,-0.11849 3.36378,-0.31522 5.40107,-0.43718 5.8245601,-0.34869 8.3571901,-1.80847 11.6795201,-6.73195 2.19264,-3.24936 2.68125,-3.52814 4.83857,-2.76071 1.64494,0.58515 1.65712,0.58372 3.99346,-0.47129 1.28892,-0.58203 3.86861,-1.49105 5.73264,-2.02003 1.86403,-0.52899 3.40253,-1.05919 3.41888,-1.17823 0.0164,-0.11903 0.0867,-2.36403 0.15627,-4.98889 0.14016,-5.28583 1.03687,-10.21455 2.39677,-13.17366 0.45735,-0.99519 1.67568,-2.92068 2.7074,-4.27888 3.29418,-4.33659 4.5259,-6.74953 5.64671,-11.06192 0.45111,-1.73566 0.569,-11.28675 0.17519,-14.19298 -0.45747,-3.37591 -1.02677,-3.97333 -4.67388,-4.90469 l -1.4993,-0.38288 v -2.57343 c 0,-1.4154 0.0839,-2.65738 0.18651,-2.75996 0.10259,-0.10259 1.08818,0.0231 2.1902,0.27925 1.10202,0.25617 2.08125,0.38819 2.17606,0.29338 0.0948,-0.0948 -0.0276,-1.9535 -0.27197,-4.13041 -1.15702,-10.30582 -2.15321,-20.74006 -2.16298,-22.65524 -0.0189,-3.70613 0.0449,-3.63932 -3.6003,-3.76822 -1.74718,-0.0618 -3.27932,-0.033 -3.40475,0.0641 -0.12543,0.097 -0.22805,10.97139 -0.22805,24.16528 0,22.44596 -0.043,24.14771 -0.66881,26.45832 -0.92617,3.41971 -1.60305,4.6409 -4.4392,8.00888 -1.35575,1.60998 -3.14232,4.19724 -3.97016,5.74946 l -1.50516,2.82222 v 5.41063 c 0,5.26052 -0.0231,5.42936 -0.83284,6.08542 -1.42353,1.15339 -2.91681,0.67393 -4.25157,-1.36508 -0.74989,-1.14556 -0.87071,-1.80996 -1.01627,-5.58859 -0.14082,-3.65538 -0.0564,-4.64572 0.57169,-6.70848 0.92506,-3.03794 2.57178,-5.78166 5.66434,-9.43774 3.92323,-4.63812 4.07033,-5.04702 4.20154,-11.67949 0.0614,-3.10445 -0.0181,-6.51757 -0.1766,-7.58472 l -0.28826,-1.94028 -4.05268,-0.10815 c -4.91426,-0.13113 -8.37002,0.33054 -13.14235,1.75578 -4.5285601,1.35244 -6.1964401,2.18693 -6.4104701,3.20735 -0.0911,0.43421 -0.34313,2.43683 -0.56014,4.45027 -0.41516,3.85208 -1.35376,7.44122 -2.29518,8.77662 -1.26001,1.78732 -2.2894,2.00352 -9.69038,2.03518 -6.1769299,0.0264 -7.0923699,0.10867 -8.9676499,0.80575 -5.21729,1.93935 -8.84279,5.39119 -9.89158,9.41776 -0.29953,1.14996 -0.76434,2.31058 -1.03292,2.57916 -0.59158,0.59158 -2.35817,0.62814 -4.35611,0.0901 -2.02857,-0.54624 -3.50045,0.11811 -6.03475,2.72381 -2.72021,2.79687 -4.81194,6.59977 -5.75677,10.46619 -0.86495,3.53959 -1.51838,4.42373 -3.26934,4.42373 -2.43539,0 -3.30737,-2.74778 -2.18303,-6.87916 1.41369,-5.19458 3.98155,-9.70561 7.39909,-12.99815 2.68493,-2.58674 4.95258,-3.89699 8.06424,-4.65954 2.35124,-0.5762 2.46532,-0.656 3.84749,-2.69134 1.579,-2.32519 5.97836,-5.85054 8.95216,-7.17368 3.4456,-1.53305 7.40003,-2.28701 11.9950899,-2.28701 5.8043,0 5.74573,0.0574 6.48346,-6.35 0.16755,-1.45521 0.23193,-2.72521 0.14308,-2.82222 -0.0889,-0.097 -1.61633,-0.16231 -3.39437,-0.14511 -7.8455899,0.0759 -16.1691699,3.11885 -23.6836399,8.65826 -1.80697,1.33205 -5.56476,3.62952 -8.35063,5.10549 -6.08628,3.22457 -7.43399,4.18446 -10.92457,7.78088 -3.25767,3.35645 -4.82111,5.74221 -7.24525,11.05603 -1.60902,3.52703 -2.19047,4.40254 -4.45151,6.70278 -5.500054,5.59539 -8.147705,12.78883 -8.18024,22.225 -0.01979,5.7408 0.48379,8.27693 2.369515,11.93328 0.76786,1.48884 1.696827,3.56743 2.06437,4.61908 2.371897,6.7867 8.056225,11.28996 16.539975,13.10338 2.3866,0.51013 4.36577,0.62726 9.69715,0.57385 l 6.69855,-0.0671 z m -11.79255,-24.96701 c -0.42636,-0.20599 -1.0347,-0.92136 -1.35184,-1.5897 -0.75332,-1.5875 -0.29703,-3.59932 1.59234,-7.02084 2.77609,-5.0273 6.45198,-7.38475 13.14652,-8.43123 0.92593,-0.14474 1.32515,-0.38725 1.33035,-0.80817 0.0145,-1.16823 1.65164,-5.23771 3.11567,-7.74447 1.8931,-3.24143 4.37709,-5.67925 7.37953,-7.24237 4.28967,-2.23326 8.0244499,-2.55629 12.9735199,-1.12211 1.70169,0.49313 3.21269,0.77095 3.35778,0.61737 0.14509,-0.15359 0.76446,-1.78737 1.37637,-3.63063 2.11487,-6.37058 4.55186,-10.84253 8.2620701,-15.16114 1.63678,-1.90517 2.50573,-2.45035 3.92068,-2.45985 1.2521,-0.008 1.69431,0.24463 2.24024,1.28183 0.61845,1.17496 0.47792,1.92101 -0.65226,3.46277 -3.08642,4.2104 -4.11784,5.87884 -5.64188,9.1263 -2.6081601,5.55756 -3.0015601,7.30854 -2.9825401,13.27509 0.013,4.0718 0.17763,5.7683 0.80718,8.31648 0.83042,3.36126 0.74729,4.34703 -0.46917,5.5635 -0.65725,0.65725 -2.35243,0.76808 -3.37528,0.22067 -1.2068,-0.64586 -2.10908,-3.31542 -3.14383,-9.30169 -0.42919,-2.48296 -1.58166,-4.13904 -3.64804,-5.24222 -1.23258,-0.65803 -2.03698,-0.78968 -4.83025,-0.79049 -3.0581099,-8.9e-4 -3.5170999,0.0908 -5.2448799,1.04776 -3.55029,1.9664 -6.32186,6.04024 -7.08846,10.41912 -0.57834,3.30358 -0.9782,4.3722 -1.99264,5.32541 -0.79215,0.74434 -1.25818,0.8516 -3.89077,0.89546 -5.44108,0.0907 -8.99173,2.61655 -10.56905,7.51868 -0.57297,1.78075 -1.00915,2.49093 -1.90579,3.10301 -1.28592,0.87783 -1.5833,0.91851 -2.71557,0.37146 z m 118.76553,-66.2527 c -0.35833,-1.84327 -0.98618,-4.85952 -1.39523,-6.70278 -1.47436,-6.64391 -5.2937,-28.24752 -5.2937,-29.94319 0,-0.26578 -1.14739,-0.3957 -3.49475,-0.3957 -3.15051,0 -3.47992,0.0608 -3.34418,0.61736 0.0828,0.33955 0.44938,3.31612 0.8146,6.61459 0.58972,5.32612 2.02513,15.0202 3.83044,25.8691 l 0.60639,3.6441 3.30616,1.2379 c 1.81838,0.68085 3.79541,1.53544 4.39338,1.89909 0.59798,0.36365 1.119,0.62737 1.15782,0.58605 0.0388,-0.0413 -0.2226,-1.58326 -0.58093,-3.42652 z m -98.41115,-0.26539 c 1.84326,-0.77429 3.62447,-1.50078 3.95824,-1.61443 0.74483,-0.25362 0.6935,-0.0239 2.22089,-9.93824 1.75038,-11.36173 2.21527,-14.82035 2.73839,-20.37291 l 0.457,-4.8507 h -3.82613 c -2.14739,0 -3.74095,0.13784 -3.63198,0.31416 0.51386,0.83145 -4.68917,33.29466 -6.02225,37.57462 -0.14774,0.47431 -0.0678,0.61575 0.27277,0.48301 0.26492,-0.10325 1.9898,-0.82123 3.83307,-1.59551 z m 82.75262,-2.64503 c -0.13258,-1.01864 -0.86103,-5.66208 -1.61876,-10.31875 -1.65528,-10.17258 -2.67979,-17.37995 -2.99624,-21.07847 l -0.23393,-2.73403 h -3.41642 -3.41641 l 0.41569,4.49792 c 0.22863,2.47385 0.58995,6.48229 0.80294,8.90764 0.76285,8.68679 1.83965,18.53279 2.09879,19.19081 0.18604,0.47241 1.45435,1.05987 4.30098,1.99215 2.22042,0.72719 4.09727,1.33851 4.17077,1.35849 0.0735,0.02 0.0252,-0.79711 -0.10741,-1.81576 z M 0.3389739,494.31691 c 0.10346,-0.15652 0.54953,-5.25214 0.99127,-11.32361 0.44174,-6.07147 0.9524,-12.69379 1.13481,-14.71627 0.1824,-2.02248 0.33164,-4.28467 0.33164,-5.02708 v -1.34985 h -3.52777 -3.52778 l -0.0179,2.02848 c -0.0222,2.51675 -0.16546,3.7733 -1.23638,10.84791 -0.46994,3.10445 -1.25414,8.58132 -1.74267,12.17083 -0.48853,3.58952 -0.94406,6.88103 -1.01229,7.31448 l -0.12406,0.78808 4.27152,-0.22419 c 2.34934,-0.12331 4.35618,-0.35226 4.45964,-0.50878 z m 10.3598601,-2.42455 c 1.57167,-0.5787 3.53227,-1.21981 4.35689,-1.4247 l 1.49931,-0.37253 V 475.99762 461.9001 h -3.31972 -3.3197201 l -0.21484,3.08681 c -0.52177,7.49663 -1.5308,18.64554 -2.4425,26.9875 -0.0583,0.53357 0.049,0.97014 0.23848,0.97014 0.18948,0 1.63043,-0.47349 3.2021001,-1.05219 z m 19.61453,-16.25474 V 461.9001 l -3.43958,-9e-5 -3.43958,-9e-5 0.0753,13.67023 0.0753,13.67023 3.09971,0.17639 c 1.70485,0.097 3.21878,0.12733 3.3643,0.0674 0.14552,-0.06 0.26458,-6.2909 0.26458,-13.84653 z m -40.99378,-43.36994 -0.10483,-10.22964 -3.61597,-9.1e-4 -3.61598,-9.1e-4 v 10.23055 10.23056 h 3.72081 3.7208 z m 13.2164099,0.0875 -0.0843,-10.14253 -3.26707,-0.0999 -3.26707,-0.0999 v 10.24226 10.24227 l 3.35139,1.7e-4 3.35139,1.8e-4 z m 14.0190401,-0.0625 v -10.20463 l -2.95943,-0.11412 c -1.62769,-0.0628 -3.21519,-0.0628 -3.52778,-5e-5 -0.5068801,0.10173 -0.5683501,1.21763 -0.5683501,10.31875 v 10.20469 h 3.5277801 3.52778 z m 13.75833,-0.0259 v -10.23055 h -3.35139 -3.35139 l -0.0228,8.37847 c -0.0125,4.60816 -0.0999,9.21191 -0.1942,10.23055 l -0.17141,1.85209 h 3.54559 3.54558 z m 13.99377,2.20486 c -0.12244,-4.41413 -0.22551,-9.01788 -0.22903,-10.23055 l -0.006,-2.20486 h -3.52778 -3.52778 v 10.23055 10.23056 h 3.75681 3.75681 z m 13.33613,-2.29305 0.21497,-10.14236 h -3.57962 c -3.11921,0 -3.55208,0.0718 -3.36549,0.55802 0.11777,0.30691 0.21413,4.91661 0.21413,10.24379 v 9.68577 l 3.15052,-0.10143 3.15053,-0.10143 z m 13.9451,0.0882 c 0,-7.9242 -0.0994,-10.24115 -0.44097,-10.27755 -1.28437,-0.13689 -5.79377,-0.15715 -6.17361,-0.0277 -0.33914,0.11553 -0.44097,2.50409 -0.44097,10.34304 v 10.19281 h 3.52778 3.52777 z"
       id="path1"
       sodipodi:nodetypes="sssssssssscsssssssssscscccsssssssccssssscccccssscccssscccssssscccsssscccccsscsscsssssscccssssssssssssssssssssscssssssssssssscssssssscssssssssssssssssssssssscsssssssssssssssscsssssssssssscsscsssssssssssssssssssssssssssssssssssssssssssscsssssssssssssssssssssssssssssscssssssssssssscsssssssssssssssssssssssssssscsssscssssssscsssssssscsssssssssssssssssssssssssssssssscsssssssssssscsssssssssssssssssssssssscsssssssscsssssssscccsssssssssscccsssscssssscccccssssccccccssscccccccccccccccccccccsssccccccccssccccccccccccccccsssccccsssscccs" /></g></svg>
