<?xml version="1.0" encoding="UTF-8" standalone="no"?>
<svg
   width="19.999969"
   height="19.999971"
   viewBox="0 0 19.999969 19.999971"
   fill="none"
   stroke="currentColor"
   stroke-width="2"
   stroke-linecap="round"
   stroke-linejoin="round"
   class="feather feather-message-square"
   version="1.1"
   id="svg1"
   sodipodi:docname="message-square.svg"
   xml:space="preserve"
   xmlns:inkscape="http://www.inkscape.org/namespaces/inkscape"
   xmlns:sodipodi="http://sodipodi.sourceforge.net/DTD/sodipodi-0.dtd"
   xmlns="http://www.w3.org/2000/svg"
   xmlns:svg="http://www.w3.org/2000/svg"><defs
     id="defs1" /><sodipodi:namedview
     id="namedview1"
     pagecolor="#ffffff"
     bordercolor="#666666"
     borderopacity="1.0"
     inkscape:showpageshadow="2"
     inkscape:pageopacity="0.0"
     inkscape:pagecheckerboard="0"
     inkscape:deskcolor="#d1d1d1" /><g
     style="fill:none;stroke:currentColor;stroke-width:2;stroke-linecap:round;stroke-linejoin:round"
     id="g2-1"
     transform="translate(-2.0000585,-1.9999719)"><path
       d="M 21,11.5 A 8.38,8.38 0 0 1 20.1,15.3 8.5,8.5 0 0 1 12.5,20 8.38,8.38 0 0 1 8.7,19.1 L 3,21 4.9,15.3 A 8.38,8.38 0 0 1 4,11.5 8.5,8.5 0 0 1 8.7,3.9 8.38,8.38 0 0 1 12.5,3 H 13 a 8.48,8.48 0 0 1 8,8 z"
       id="path1-2-8" /></g><path
     style="color:#000000;fill:#000000;stroke-width:0.6;stroke-dasharray:none"
     d="m 7.8409535,14.668366 c 0.03974,-0.02092 0.103449,-0.06655 0.141555,-0.101422 0.03811,-0.03487 0.08936,-0.106749 0.113902,-0.159746 0.02454,-0.053 0.04461,-0.145144 0.04461,-0.204765 0,-0.05962 -0.0203,-0.15177 -0.04511,-0.204767 -0.02655,-0.0567 -0.189919,-0.239995 -0.396958,-0.445356 -0.193516,-0.191948 -0.351847,-0.357039 -0.351847,-0.36687 0,-0.0099 1.466186,-0.02081 3.2581915,-0.0244 l 3.258192,-0.0066 0.168631,-0.05658 c 0.09275,-0.03111 0.240479,-0.09411 0.328292,-0.139953 0.08782,-0.04585 0.231956,-0.143006 0.320315,-0.215888 0.08836,-0.07288 0.21011,-0.199613 0.270558,-0.281624 0.06044,-0.08201 0.147428,-0.223523 0.193292,-0.314473 0.04587,-0.09095 0.10575,-0.248138 0.133081,-0.349307 0.04355,-0.161184 0.05113,-0.27519 0.06125,-0.921377 0.0079,-0.508133 0.0029,-0.777797 -0.01629,-0.867245 -0.0153,-0.07139 -0.05132,-0.1640919 -0.08002,-0.2059899 -0.0287,-0.0419 -0.09478,-0.103791 -0.146821,-0.137538 -0.05205,-0.03376 -0.143005,-0.06862 -0.202126,-0.07749 -0.06068,-0.009 -0.146743,-0.0044 -0.197623,0.01082 -0.04957,0.01485 -0.127095,0.0519 -0.172257,0.08232 -0.04517,0.03043 -0.10923,0.103681 -0.142349,0.162788 -0.06013,0.107299 -0.06024,0.108806 -0.07227,0.9144939 l -0.01206,0.80702 -0.08272,0.152582 c -0.0455,0.08393 -0.12767,0.189409 -0.182595,0.234419 -0.05492,0.045 -0.153209,0.106435 -0.218401,0.136493 l -0.118532,0.05466 -3.173877,0.0064 c -1.7456305,0.0036 -3.1738765,-0.0021 -3.1738765,-0.01233 0,-0.01041 0.158331,-0.175861 0.351847,-0.367809 0.20704,-0.205359 0.370414,-0.388653 0.39696,-0.445356 0.02481,-0.053 0.04535,-0.142781 0.04563,-0.199516 2.91e-4,-0.05673 -0.0163,-0.143461 -0.03688,-0.192722 -0.02058,-0.04926 -0.06665,-0.120368 -0.10238,-0.158018 -0.03573,-0.03765 -0.105188,-0.08915 -0.154348,-0.114423 -0.05336,-0.02744 -0.138618,-0.04598 -0.211562,-0.04598 -0.0672,0 -0.162491,0.01665 -0.211749,0.03699 -0.06028,0.02491 -0.359819,0.306432 -0.916288,0.861223 -0.464092,0.462692 -0.849206,0.866496 -0.877976,0.920589 -0.03439,0.06465 -0.05125,0.139964 -0.05125,0.228857 0,0.0889 0.01688,0.164208 0.05125,0.228856 0.02877,0.05409 0.413884,0.457896 0.877976,0.920589 0.556469,0.554792 0.856004,0.836322 0.916288,0.861223 0.04926,0.02034 0.146824,0.03656 0.216811,0.03603 0.06998,-5.42e-4 0.159768,-0.01807 0.199517,-0.03899 z M 6.2867065,9.5285821 c 0.05939,-0.02776 0.128287,-0.06884 0.153125,-0.0913 0.02482,-0.02245 0.06839,-0.0842 0.09679,-0.137194 0.04906,-0.09154 0.05224,-0.13674 0.06369,-0.903381 l 0.01205,-0.80702 0.08274,-0.152582 c 0.0455,-0.08393 0.12767,-0.189409 0.182593,-0.234419 0.05492,-0.045 0.153208,-0.106435 0.218401,-0.136493 l 0.118532,-0.05466 3.1738755,-0.0064 c 1.745631,-0.0036 3.173875,0.0021 3.173875,0.01233 0,0.01041 -0.15833,0.17586 -0.351847,0.367808 -0.207038,0.205361 -0.370413,0.388654 -0.396958,0.445356 -0.02481,0.053 -0.04535,0.142782 -0.04563,0.199518 -2.92e-4,0.05673 0.0163,0.143461 0.03688,0.192721 0.02058,0.04927 0.06665,0.120368 0.10238,0.158019 0.03573,0.03765 0.105188,0.08915 0.154348,0.114422 0.05336,0.02744 0.138615,0.04598 0.211563,0.04598 0.0672,0 0.162487,-0.01665 0.211748,-0.03699 0.06028,-0.02491 0.359805,-0.306431 0.916274,-0.861223 0.464093,-0.462694 0.849205,-0.866497 0.877978,-0.92059 0.03439,-0.06465 0.05125,-0.139964 0.05125,-0.228858 0,-0.08889 -0.01686,-0.164207 -0.05125,-0.228856 -0.02877,-0.054089 -0.413885,-0.457896 -0.877978,-0.920588 -0.556469,-0.554792 -0.856001,-0.836323 -0.916287,-0.861223 -0.04927,-0.02035 -0.144547,-0.03699 -0.211749,-0.03699 -0.0734,0 -0.158774,0.01867 -0.213842,0.04676 -0.05042,0.02572 -0.125273,0.08505 -0.166358,0.131835 -0.04109,0.04678 -0.08606,0.126026 -0.09997,0.176072 -0.01391,0.05005 -0.02528,0.118094 -0.02528,0.151224 0,0.03313 0.01192,0.103585 0.02636,0.156585 0.02095,0.07657 0.102544,0.173227 0.397352,0.470702 0.204046,0.205888 0.370992,0.38182 0.370992,0.390961 0,0.0092 -1.466187,0.01955 -3.258193,0.02314 l -3.2581925,0.0066 -0.16863,0.05658 c -0.09275,0.03111 -0.240349,0.09404 -0.328009,0.139805 -0.08765,0.04577 -0.222903,0.134397 -0.300543,0.19695 -0.07764,0.06255 -0.193532,0.178507 -0.257535,0.257683 -0.06401,0.07917 -0.163652,0.238137 -0.221441,0.353246 -0.05779,0.115107 -0.12493,0.293978 -0.149204,0.397486 -0.03802,0.162128 -0.04413,0.296665 -0.04413,0.97113 0,0.572441 0.0082,0.806137 0.03066,0.869248 0.01688,0.04747 0.06498,0.121437 0.106942,0.164348 0.04196,0.04292 0.107983,0.09442 0.14671,0.114449 0.03873,0.02003 0.126109,0.04136 0.194185,0.0474 0.09248,0.0082 0.151055,-0.0018 0.231735,-0.03948 z"
     id="path5-5-2" /></svg>
